<svg xmlns="http://www.w3.org/2000/svg" viewBox="0 0 418.58 519.22"><defs><style>.cls-1{fill:#fff;}</style></defs><g id="Layer_2" data-name="Layer 2"><g id="Layer_1-2" data-name="Layer 1"><path class="cls-1" d="M276.82,457.51l-60,11.11c0,5.45,0,12.07,0,18.69,0,5.62-2.77,9-7.14,8.91-4.16-.08-6.79-3.37-6.83-8.71-.05-6.63,0-13.25,0-18.8l-61-11.17v51.51c0,6.67-2.32,10.07-6.89,10.17s-7.11-3.4-7.11-9.94c0-17.66-.12-35.33.08-53,0-4-1-5.92-4.85-7.76C50.18,413.38,8.34,355.5,1,275c-6.2-67.69,17.41-125.47,67-171.95C99.22,73.8,136.83,56.87,179.15,50.51c3-.45,4.66-1.48,5.92-4.27C191.14,32.79,197.49,19.46,203.6,6c1.93-4.23,5.38-5.81,9.56-6,4.75-.24,8.47,1.85,10.43,6.28C229.5,19.63,235.47,33,241,46.42c1.46,3.55,3.5,5,7.09,5.65C277,57.33,303.8,68.05,327.84,85c53.71,37.82,84.41,89.64,89.9,155,5.7,67.94-17.57,125.65-67.1,172.49a189.63,189.63,0,0,1-55.32,36.21c-3.83,1.67-4.61,3.71-4.57,7.45.17,17.16.07,34.33.07,51.49,0,1,0,2,0,3-.1,5.31-2.73,8.56-6.95,8.6s-7-3.18-7-8.5c0-16.17,0-32.33,0-48.49Zm-98.7-397.1C115.89,67.06,27.67,121.06,11.21,227.25c-16,103,48.71,185.66,116.6,213v-6.5c0-21,0-42,0-63,0-6,4.29-9.85,9-8.15,4.08,1.46,5,4.74,5,8.8-.09,23.5.05,47-.14,70.5,0,3.68,1.1,5.4,4.59,6.24,9.22,2.21,18.31,5.11,27.62,6.84s19,2.43,28.89,3.64V452q0-51,0-102a28,28,0,0,1,.09-4.49c.62-3.73,2.88-6.13,6.69-6.21,4.05-.08,6.48,2.31,7.12,6.29a28.12,28.12,0,0,1,.09,4.5q0,51,0,102v7.43c16.18-3,31.47-5.39,46.5-8.86,13.62-3.14,13.5-3.66,13.5-17.41v-3c0-19.83,0-39.67,0-59.5,0-6,4.27-9.89,9-8.19,3.79,1.36,5.06,4.34,5,8.28-.08,21.34,0,42.67,0,64v5.46C361.22,411.4,422.87,328,407.46,227.12c-6.34-41.56-24.27-77.72-53.4-108.09S289.53,69.48,247.23,60.8c4.72,10.42,9,19.74,13.19,29.14,6.81,15.47,13.5,31,20.27,46.5q10.53,24.13,21.08,48.25,10.13,23.25,20.17,46.53,11,25.34,21.92,50.69,11.79,27.38,23.48,54.8c2.48,5.81,5.13,11.57,7.09,17.55,1.42,4.32.58,8.76-3.24,11.78s-8,2.63-12.17.45c-15.61-8.11-31.22-16.22-46.91-24.16-11-5.55-22.14-10.71-33.1-16.28-12-6.1-23.82-12.49-35.75-18.72-9.67-5.05-19.35-10.11-29.11-15a5.94,5.94,0,0,0-4.46-.41c-4.22,1.9-8.24,4.21-12.32,6.4-17.39,9.31-34.7,18.77-52.18,27.93-17.63,9.23-35.42,18.15-53.14,27.23-1.62.83-3.18,1.8-4.8,2.65-9.38,4.89-18.31,10.8-29.07,12.57-4.92.81-9.39.24-12.69-3.71-3.46-4.13-2.4-8.71-.36-13.11,2.86-6.17,5.9-12.25,8.7-18.44,8.82-19.5,17.47-39.07,26.37-58.52s18.27-39,27.23-58.57c9-19.76,17.81-39.65,26.77-59.44q8.28-18.3,16.77-36.5c5.8-12.48,11.78-24.89,17.5-37.41C171.82,75.65,174.83,68.14,178.12,60.41ZM213.56,9,53.35,358.65l.57,1.36c4.83-1.83,9.9-3.19,14.44-5.56Q137,318.59,205.48,282.36c4.08-2.16,7.18-2.34,11.4-.17q71.52,36.87,143.24,73.32c1.32.68,2.72,1.19,5.05,2.2Z"/><path class="cls-1" d="M214.47,235.48a34,34,0,1,1-.13-68,34,34,0,1,1,.13,68Zm23.34-33.71c.39-15.36-10.9-23.54-23.4-24-12.08-.42-23.53,10.19-23.81,23.33-.29,14,11.92,24.32,23.92,24.3S238.7,214.62,237.81,201.77Z"/></g></g></svg>